<?xml version="1.0" encoding="UTF-8"?>
<svg width="450px" height="717px" viewBox="0 0 450 717" version="1.1" xmlns="http://www.w3.org/2000/svg" xmlns:xlink="http://www.w3.org/1999/xlink">
    <title>oiu</title>
    <defs>
        <linearGradient x1="53.235611%" y1="100%" x2="46.764389%" y2="-7.61519295e-15%" id="linearGradient-1">
            <stop stop-color="#1E58FF" offset="0%"></stop>
            <stop stop-color="#00FCCB" offset="100%"></stop>
        </linearGradient>
    </defs>
    <g id="Page-1" stroke="none" stroke-width="1" fill="none" fill-rule="evenodd">
        <g id="thumbnail_dark" transform="translate(-275, -142)" fill-rule="nonzero">
            <g id="oiu" transform="translate(275, 142)">
                <path d="M265.081752,884.233577 L185.575182,884.233577 C175.965428,884.233577 168.175182,876.443331 168.175182,866.833577 L168.175182,452.290511 C168.175182,442.680756 175.965428,434.890511 185.575182,434.890511 L265.081752,434.890511 C274.691506,434.890511 282.481752,442.680756 282.481752,452.290511 L282.481752,866.833577 C282.481752,876.443331 274.691506,884.233577 265.081752,884.233577 Z" id="Shape" fill="url(#linearGradient-1)" transform="translate(225.3285, 659.562) rotate(90) translate(-225.3285, -659.562)"></path>
                <path d="M222.878195,373.660986 C258.197691,373.660986 283.16492,364.395409 297.779884,345.864254 C312.394847,327.3331 319.093372,300.751525 317.875459,266.119532 L317.875459,17.4 C317.875459,7.79024535 325.665704,7.10542736e-15 335.275459,7.10542736e-15 L429.269826,0 C438.87958,-3.55271368e-14 446.669826,7.79024535 446.669826,17.4 L446.669826,269.765005 L446.669826,269.765005 C446.669826,303.181841 443.472802,331.738046 437.078756,355.433621 C430.684709,379.129196 419.875726,400.698244 404.651805,420.140767 C393.081626,434.722659 380.445772,445.962868 366.744243,453.861393 C353.042715,461.759918 338.427751,468.29139 322.899353,473.45581 C307.370954,478.62023 290.92912,482.265704 273.57385,484.392229 C256.218581,486.518755 239.320029,487.582018 222.878195,487.582018 C185.122873,487.582018 150.716812,482.417598 119.660015,472.088758 C88.603217,461.759918 62.7225522,444.443921 42.0180204,420.140767 C26.1851432,400.698244 15.2239204,379.129196 9.13435226,355.433621 C3.04478409,331.738046 0,303.181841 0,269.765005 L0,17.4 C0,7.79024535 7.79024535,1.0658141e-14 17.4,1.0658141e-14 L111.394367,-3.55271368e-15 C121.004122,-3.55271368e-15 128.794367,7.79024535 128.794367,17.4 L128.794367,266.119532 L128.794367,266.119532 C128.18541,300.751525 135.492892,327.181205 150.716812,345.40857 C165.940733,363.635935 189.994527,373.053407 222.878195,373.660986 Z" id="Path" fill="#FFFFFF" transform="translate(223.3349, 243.791) rotate(180) translate(-223.3349, -243.791)"></path>
            </g>
        </g>
    </g>
</svg>